<svg id="chart" width="100%" height="auto" viewBox="0 0 2000 1000" xmlns="http://www.w3.org/2000/svg">
  <path d=" M0,1000 h53.33333333333334 v-562.1962407706466 q0,-7 -7,-7 h-39.33333333333334 q-7,0 -7,7 Z"
    fill="#444cf7" />
  <path d=" M66.66666666666667,1000 h53.33333333333334 v-388.7011339571799 q0,-7 -7,-7 h-39.33333333333334 q-7,0 -7,7 Z"
    fill="#444cf7" />
  <path
    d=" M133.33333333333334,1000 h53.33333333333334 v-813.4173319567705 q0,-7 -7,-7 h-39.33333333333334 q-7,0 -7,7 Z"
    fill="#444cf7" />
  <path d=" M200,1000 h53.33333333333334 v-727.0007399996365 q0,-7 -7,-7 h-39.33333333333334 q-7,0 -7,7 Z"
    fill="#444cf7" />
  <path d=" M266.6666666666667,1000 h53.33333333333334 v-440.0646904646401 q0,-7 -7,-7 h-39.33333333333334 q-7,0 -7,7 Z"
    fill="#444cf7" />
  <path
    d=" M333.33333333333337,1000 h53.33333333333334 v-880.9869901485979 q0,-7 -7,-7 h-39.33333333333334 q-7,0 -7,7 Z"
    fill="#444cf7" />
  <path d=" M400,1000 h53.33333333333334 v-791.8951725634612 q0,-7 -7,-7 h-39.33333333333334 q-7,0 -7,7 Z"
    fill="#444cf7" />
  <path
    d=" M466.6666666666667,1000 h53.33333333333334 v-405.18329645293466 q0,-7 -7,-7 h-39.33333333333334 q-7,0 -7,7 Z"
    fill="#444cf7" />
  <path d=" M533.3333333333334,1000 h53.33333333333334 v-392.2843399505755 q0,-7 -7,-7 h-39.33333333333334 q-7,0 -7,7 Z"
    fill="#444cf7" />
  <path d=" M600,1000 h53.33333333333334 v-738.5867330075066 q0,-7 -7,-7 h-39.33333333333334 q-7,0 -7,7 Z"
    fill="#444cf7" />
  <path d=" M666.6666666666667,1000 h53.33333333333334 v-446.4301852099834 q0,-7 -7,-7 h-39.33333333333334 q-7,0 -7,7 Z"
    fill="#444cf7" />
  <path d=" M733.3333333333334,1000 h53.33333333333334 v-846.3198978923687 q0,-7 -7,-7 h-39.33333333333334 q-7,0 -7,7 Z"
    fill="#444cf7" />
  <path d=" M800,1000 h53.33333333333334 v-352.74435476166695 q0,-7 -7,-7 h-39.33333333333334 q-7,0 -7,7 Z"
    fill="#444cf7" />
  <path
    d=" M866.6666666666667,1000 h53.33333333333334 v-430.91111226693204 q0,-7 -7,-7 h-39.33333333333334 q-7,0 -7,7 Z"
    fill="#444cf7" />
  <path d=" M933.3333333333334,1000 h53.33333333333334 v-566.9601526237097 q0,-7 -7,-7 h-39.33333333333334 q-7,0 -7,7 Z"
    fill="#444cf7" />
  <path
    d=" M1000.0000000000001,1000 h53.33333333333334 v-293.35818666687305 q0,-7 -7,-7 h-39.33333333333334 q-7,0 -7,7 Z"
    fill="#444cf7" />
  <path
    d=" M1066.6666666666667,1000 h53.33333333333334 v-847.8264245164743 q0,-7 -7,-7 h-39.33333333333334 q-7,0 -7,7 Z"
    fill="#444cf7" />
  <path
    d=" M1133.3333333333335,1000 h53.33333333333334 v-784.2402575639346 q0,-7 -7,-7 h-39.33333333333334 q-7,0 -7,7 Z"
    fill="#444cf7" />
  <path d=" M1200,1000 h53.33333333333334 v-728.1802193950602 q0,-7 -7,-7 h-39.33333333333334 q-7,0 -7,7 Z"
    fill="#444cf7" />
  <path
    d=" M1266.6666666666667,1000 h53.33333333333334 v-472.34505267243935 q0,-7 -7,-7 h-39.33333333333334 q-7,0 -7,7 Z"
    fill="#444cf7" />
  <path
    d=" M1333.3333333333335,1000 h53.33333333333334 v-473.9620182584878 q0,-7 -7,-7 h-39.33333333333334 q-7,0 -7,7 Z"
    fill="#444cf7" />
  <path d=" M1400,1000 h53.33333333333334 v-670.1789523281839 q0,-7 -7,-7 h-39.33333333333334 q-7,0 -7,7 Z"
    fill="#444cf7" />
  <path d=" M1466.6666666666667,1000 h53.33333333333334 v-213.275147730532 q0,-7 -7,-7 h-39.33333333333334 q-7,0 -7,7 Z"
    fill="#444cf7" />
  <path
    d=" M1533.3333333333335,1000 h53.33333333333334 v-660.3800239878954 q0,-7 -7,-7 h-39.33333333333334 q-7,0 -7,7 Z"
    fill="#444cf7" />
  <path d=" M1600,1000 h53.33333333333334 v-739.4352715870144 q0,-7 -7,-7 h-39.33333333333334 q-7,0 -7,7 Z"
    fill="#444cf7" />
  <path
    d=" M1666.6666666666667,1000 h53.33333333333334 v-213.60522934802736 q0,-7 -7,-7 h-39.33333333333334 q-7,0 -7,7 Z"
    fill="#444cf7" />
  <path
    d=" M1733.3333333333335,1000 h53.33333333333334 v-378.47332998385286 q0,-7 -7,-7 h-39.33333333333334 q-7,0 -7,7 Z"
    fill="#444cf7" />
  <path
    d=" M1800.0000000000002,1000 h53.33333333333334 v-390.4833290450729 q0,-7 -7,-7 h-39.33333333333334 q-7,0 -7,7 Z"
    fill="#444cf7" />
  <path
    d=" M1866.6666666666667,1000 h53.33333333333334 v-292.4625723878147 q0,-7 -7,-7 h-39.33333333333334 q-7,0 -7,7 Z"
    fill="#444cf7" />
  <path
    d=" M1933.3333333333335,1000 h53.33333333333334 v-794.2779237965613 q0,-7 -7,-7 h-39.33333333333334 q-7,0 -7,7 Z"
    fill="#444cf7" />
</svg>