<svg id="chart" width="100%" height="auto" viewBox="0 0 2000 1000" xmlns="http://www.w3.org/2000/svg">
  <path d=" M0,1000 h114.28571428571429 v-3.1646482156955926 q0,-7 -7,-7 h-100.28571428571429 q-7,0 -7,7 Z"
    fill="#444cf7" />
  <path
    d=" M142.85714285714286,1000 h114.28571428571429 v-47.806776082935926 q0,-7 -7,-7 h-100.28571428571429 q-7,0 -7,7 Z"
    fill="#444cf7" />
  <path
    d=" M285.7142857142857,1000 h114.28571428571429 v-75.42080939100617 q0,-7 -7,-7 h-100.28571428571429 q-7,0 -7,7 Z"
    fill="#444cf7" />
  <path
    d=" M428.57142857142856,1000 h114.28571428571429 v-143.3788738940051 q0,-7 -7,-7 h-100.28571428571429 q-7,0 -7,7 Z"
    fill="#444cf7" />
  <path
    d=" M571.4285714285714,1000 h114.28571428571429 v-243.4275607347597 q0,-7 -7,-7 h-100.28571428571429 q-7,0 -7,7 Z"
    fill="#444cf7" />
  <path
    d=" M714.2857142857143,1000 h114.28571428571429 v-299.9503603127804 q0,-7 -7,-7 h-100.28571428571429 q-7,0 -7,7 Z"
    fill="#444cf7" />
  <path
    d=" M857.1428571428571,1000 h114.28571428571429 v-452.57582604058257 q0,-7 -7,-7 h-100.28571428571429 q-7,0 -7,7 Z"
    fill="#444cf7" />
  <path d=" M1000,1000 h114.28571428571429 v-377.37986459763044 q0,-7 -7,-7 h-100.28571428571429 q-7,0 -7,7 Z"
    fill="#444cf7" />
  <path
    d=" M1142.857142857143,1000 h114.28571428571429 v-345.322816055419 q0,-7 -7,-7 h-100.28571428571429 q-7,0 -7,7 Z"
    fill="#444cf7" />
  <path
    d=" M1285.7142857142858,1000 h114.28571428571429 v-684.6778238565832 q0,-7 -7,-7 h-100.28571428571429 q-7,0 -7,7 Z"
    fill="#444cf7" />
  <path
    d=" M1428.5714285714287,1000 h114.28571428571429 v-627.5724111417425 q0,-7 -7,-7 h-100.28571428571429 q-7,0 -7,7 Z"
    fill="#444cf7" />
  <path
    d=" M1571.4285714285716,1000 h114.28571428571429 v-534.3595204078287 q0,-7 -7,-7 h-100.28571428571429 q-7,0 -7,7 Z"
    fill="#444cf7" />
  <path
    d=" M1714.2857142857142,1000 h114.28571428571429 v-771.2219339237872 q0,-7 -7,-7 h-100.28571428571429 q-7,0 -7,7 Z"
    fill="#444cf7" />
  <path
    d=" M1857.142857142857,1000 h114.28571428571429 v-922.2668184957582 q0,-7 -7,-7 h-100.28571428571429 q-7,0 -7,7 Z"
    fill="#444cf7" />
</svg>