<svg id="chart" width="100%" height="auto" viewBox="0 0 2000 1000" xmlns="http://www.w3.org/2000/svg">
  <path d=" M0,1000 h114.28571428571429 v-319.09945043490734 q0,-7 -7,-7 h-100.28571428571429 q-7,0 -7,7 Z"
    fill="#444cf7" />
  <path
    d=" M142.85714285714286,1000 h114.28571428571429 v-498.5361233331761 q0,-7 -7,-7 h-100.28571428571429 q-7,0 -7,7 Z"
    fill="#444cf7" />
  <path
    d=" M285.7142857142857,1000 h114.28571428571429 v-833.1299440342563 q0,-7 -7,-7 h-100.28571428571429 q-7,0 -7,7 Z"
    fill="#444cf7" />
  <path
    d=" M428.57142857142856,1000 h114.28571428571429 v-253.5261329858099 q0,-7 -7,-7 h-100.28571428571429 q-7,0 -7,7 Z"
    fill="#444cf7" />
  <path
    d=" M571.4285714285714,1000 h114.28571428571429 v-449.4018658324486 q0,-7 -7,-7 h-100.28571428571429 q-7,0 -7,7 Z"
    fill="#444cf7" />
  <path
    d=" M714.2857142857143,1000 h114.28571428571429 v-516.1696330426927 q0,-7 -7,-7 h-100.28571428571429 q-7,0 -7,7 Z"
    fill="#444cf7" />
  <path
    d=" M857.1428571428571,1000 h114.28571428571429 v-721.697173799892 q0,-7 -7,-7 h-100.28571428571429 q-7,0 -7,7 Z"
    fill="#444cf7" />
  <path d=" M1000,1000 h114.28571428571429 v-601.7632051974472 q0,-7 -7,-7 h-100.28571428571429 q-7,0 -7,7 Z"
    fill="#444cf7" />
  <path
    d=" M1142.857142857143,1000 h114.28571428571429 v-579.3352649852902 q0,-7 -7,-7 h-100.28571428571429 q-7,0 -7,7 Z"
    fill="#444cf7" />
  <path
    d=" M1285.7142857142858,1000 h114.28571428571429 v-741.9866818587408 q0,-7 -7,-7 h-100.28571428571429 q-7,0 -7,7 Z"
    fill="#444cf7" />
  <path
    d=" M1428.5714285714287,1000 h114.28571428571429 v-776.8574521373773 q0,-7 -7,-7 h-100.28571428571429 q-7,0 -7,7 Z"
    fill="#444cf7" />
  <path
    d=" M1571.4285714285716,1000 h114.28571428571429 v-275.5872551778591 q0,-7 -7,-7 h-100.28571428571429 q-7,0 -7,7 Z"
    fill="#444cf7" />
  <path
    d=" M1714.2857142857142,1000 h114.28571428571429 v-684.17141107631 q0,-7 -7,-7 h-100.28571428571429 q-7,0 -7,7 Z"
    fill="#444cf7" />
  <path
    d=" M1857.142857142857,1000 h114.28571428571429 v-399.11285346939565 q0,-7 -7,-7 h-100.28571428571429 q-7,0 -7,7 Z"
    fill="#444cf7" />
</svg>