<svg id="chart" width="100%" height="auto" viewBox="0 0 2000 1000" xmlns="http://www.w3.org/2000/svg">
  <path d=" M0,1000 h114.28571428571429 v-544.7825778840311 q0,-7 -7,-7 h-100.28571428571429 q-7,0 -7,7 Z"
    fill="#444cf7" />
  <path
    d=" M142.85714285714286,1000 h114.28571428571429 v-267.0939154464222 q0,-7 -7,-7 h-100.28571428571429 q-7,0 -7,7 Z"
    fill="#444cf7" />
  <path
    d=" M285.7142857142857,1000 h114.28571428571429 v-313.2871062725126 q0,-7 -7,-7 h-100.28571428571429 q-7,0 -7,7 Z"
    fill="#444cf7" />
  <path
    d=" M428.57142857142856,1000 h114.28571428571429 v-534.5453920307276 q0,-7 -7,-7 h-100.28571428571429 q-7,0 -7,7 Z"
    fill="#444cf7" />
  <path
    d=" M571.4285714285714,1000 h114.28571428571429 v-851.2857320869848 q0,-7 -7,-7 h-100.28571428571429 q-7,0 -7,7 Z"
    fill="#444cf7" />
  <path
    d=" M714.2857142857143,1000 h114.28571428571429 v-474.7635349718305 q0,-7 -7,-7 h-100.28571428571429 q-7,0 -7,7 Z"
    fill="#444cf7" />
  <path
    d=" M857.1428571428571,1000 h114.28571428571429 v-843.1674574412103 q0,-7 -7,-7 h-100.28571428571429 q-7,0 -7,7 Z"
    fill="#444cf7" />
  <path d=" M1000,1000 h114.28571428571429 v-257.2546094904865 q0,-7 -7,-7 h-100.28571428571429 q-7,0 -7,7 Z"
    fill="#444cf7" />
  <path
    d=" M1142.857142857143,1000 h114.28571428571429 v-304.87971533628365 q0,-7 -7,-7 h-100.28571428571429 q-7,0 -7,7 Z"
    fill="#444cf7" />
  <path
    d=" M1285.7142857142858,1000 h114.28571428571429 v-682.7500734723193 q0,-7 -7,-7 h-100.28571428571429 q-7,0 -7,7 Z"
    fill="#444cf7" />
  <path
    d=" M1428.5714285714287,1000 h114.28571428571429 v-512.694728113041 q0,-7 -7,-7 h-100.28571428571429 q-7,0 -7,7 Z"
    fill="#444cf7" />
  <path
    d=" M1571.4285714285716,1000 h114.28571428571429 v-720.2517227557529 q0,-7 -7,-7 h-100.28571428571429 q-7,0 -7,7 Z"
    fill="#444cf7" />
  <path
    d=" M1714.2857142857142,1000 h114.28571428571429 v-228.371530703105 q0,-7 -7,-7 h-100.28571428571429 q-7,0 -7,7 Z"
    fill="#444cf7" />
  <path
    d=" M1857.142857142857,1000 h114.28571428571429 v-681.8112958970972 q0,-7 -7,-7 h-100.28571428571429 q-7,0 -7,7 Z"
    fill="#444cf7" />
</svg>