<svg id="chart" width="100%" height="auto" viewBox="0 0 2000 1000" xmlns="http://www.w3.org/2000/svg">
  <path d=" M0,1000 h45.71428571428572 v-983.4301504597379 q0,-7 -7,-7 h-31.714285714285722 q-7,0 -7,7 Z"
    fill="#444cf7" />
  <path
    d=" M57.142857142857146,1000 h45.71428571428572 v-973.4445656640429 q0,-7 -7,-7 h-31.714285714285722 q-7,0 -7,7 Z"
    fill="#444cf7" />
  <path
    d=" M114.28571428571429,1000 h45.71428571428572 v-944.7173773745716 q0,-7 -7,-7 h-31.714285714285722 q-7,0 -7,7 Z"
    fill="#444cf7" />
  <path
    d=" M171.42857142857144,1000 h45.71428571428572 v-926.1262863403867 q0,-7 -7,-7 h-31.714285714285722 q-7,0 -7,7 Z"
    fill="#444cf7" />
  <path
    d=" M228.57142857142858,1000 h45.71428571428572 v-922.5879587089773 q0,-7 -7,-7 h-31.714285714285722 q-7,0 -7,7 Z"
    fill="#444cf7" />
  <path
    d=" M285.7142857142857,1000 h45.71428571428572 v-880.4329529133568 q0,-7 -7,-7 h-31.714285714285722 q-7,0 -7,7 Z"
    fill="#444cf7" />
  <path
    d=" M342.8571428571429,1000 h45.71428571428572 v-892.3635872421298 q0,-7 -7,-7 h-31.714285714285722 q-7,0 -7,7 Z"
    fill="#444cf7" />
  <path d=" M400,1000 h45.71428571428572 v-873.2703031098513 q0,-7 -7,-7 h-31.714285714285722 q-7,0 -7,7 Z"
    fill="#444cf7" />
  <path
    d=" M457.14285714285717,1000 h45.71428571428572 v-872.6239302588358 q0,-7 -7,-7 h-31.714285714285722 q-7,0 -7,7 Z"
    fill="#444cf7" />
  <path
    d=" M514.2857142857143,1000 h45.71428571428572 v-772.4097287167868 q0,-7 -7,-7 h-31.714285714285722 q-7,0 -7,7 Z"
    fill="#444cf7" />
  <path
    d=" M571.4285714285714,1000 h45.71428571428572 v-751.4088228818594 q0,-7 -7,-7 h-31.714285714285722 q-7,0 -7,7 Z"
    fill="#444cf7" />
  <path
    d=" M628.5714285714286,1000 h45.71428571428572 v-721.9010321018217 q0,-7 -7,-7 h-31.714285714285722 q-7,0 -7,7 Z"
    fill="#444cf7" />
  <path
    d=" M685.7142857142858,1000 h45.71428571428572 v-761.0847818742618 q0,-7 -7,-7 h-31.714285714285722 q-7,0 -7,7 Z"
    fill="#444cf7" />
  <path
    d=" M742.8571428571429,1000 h45.71428571428572 v-686.1675609346712 q0,-7 -7,-7 h-31.714285714285722 q-7,0 -7,7 Z"
    fill="#444cf7" />
  <path d=" M800,1000 h45.71428571428572 v-597.6577432637333 q0,-7 -7,-7 h-31.714285714285722 q-7,0 -7,7 Z"
    fill="#444cf7" />
  <path
    d=" M857.1428571428572,1000 h45.71428571428572 v-758.8185531812144 q0,-7 -7,-7 h-31.714285714285722 q-7,0 -7,7 Z"
    fill="#444cf7" />
  <path
    d=" M914.2857142857143,1000 h45.71428571428572 v-759.2476563825364 q0,-7 -7,-7 h-31.714285714285722 q-7,0 -7,7 Z"
    fill="#444cf7" />
  <path d=" M971.4285714285714,1000 h45.71428571428572 v-546.852707934716 q0,-7 -7,-7 h-31.714285714285722 q-7,0 -7,7 Z"
    fill="#444cf7" />
  <path
    d=" M1028.5714285714287,1000 h45.71428571428572 v-484.7318664280884 q0,-7 -7,-7 h-31.714285714285722 q-7,0 -7,7 Z"
    fill="#444cf7" />
  <path
    d=" M1085.7142857142858,1000 h45.71428571428572 v-445.79012454511326 q0,-7 -7,-7 h-31.714285714285722 q-7,0 -7,7 Z"
    fill="#444cf7" />
  <path
    d=" M1142.857142857143,1000 h45.71428571428572 v-548.8251961695944 q0,-7 -7,-7 h-31.714285714285722 q-7,0 -7,7 Z"
    fill="#444cf7" />
  <path d=" M1200,1000 h45.71428571428572 v-655.3452124708737 q0,-7 -7,-7 h-31.714285714285722 q-7,0 -7,7 Z"
    fill="#444cf7" />
  <path d=" M1257.142857142857,1000 h45.71428571428572 v-556.004040833443 q0,-7 -7,-7 h-31.714285714285722 q-7,0 -7,7 Z"
    fill="#444cf7" />
  <path
    d=" M1314.2857142857144,1000 h45.71428571428572 v-385.7382670533806 q0,-7 -7,-7 h-31.714285714285722 q-7,0 -7,7 Z"
    fill="#444cf7" />
  <path
    d=" M1371.4285714285716,1000 h45.71428571428572 v-456.06168404654295 q0,-7 -7,-7 h-31.714285714285722 q-7,0 -7,7 Z"
    fill="#444cf7" />
  <path
    d=" M1428.5714285714287,1000 h45.71428571428572 v-613.5351093146876 q0,-7 -7,-7 h-31.714285714285722 q-7,0 -7,7 Z"
    fill="#444cf7" />
  <path
    d=" M1485.7142857142858,1000 h45.71428571428572 v-445.6124877424161 q0,-7 -7,-7 h-31.714285714285722 q-7,0 -7,7 Z"
    fill="#444cf7" />
  <path
    d=" M1542.857142857143,1000 h45.71428571428572 v-300.20957958848646 q0,-7 -7,-7 h-31.714285714285722 q-7,0 -7,7 Z"
    fill="#444cf7" />
  <path d=" M1600,1000 h45.71428571428572 v-264.8738935809953 q0,-7 -7,-7 h-31.714285714285722 q-7,0 -7,7 Z"
    fill="#444cf7" />
  <path
    d=" M1657.1428571428573,1000 h45.71428571428572 v-269.1054382270215 q0,-7 -7,-7 h-31.714285714285722 q-7,0 -7,7 Z"
    fill="#444cf7" />
  <path
    d=" M1714.2857142857144,1000 h45.71428571428572 v-276.7797719175353 q0,-7 -7,-7 h-31.714285714285722 q-7,0 -7,7 Z"
    fill="#444cf7" />
  <path
    d=" M1771.4285714285716,1000 h45.71428571428572 v-404.85085759659717 q0,-7 -7,-7 h-31.714285714285722 q-7,0 -7,7 Z"
    fill="#444cf7" />
  <path
    d=" M1828.5714285714287,1000 h45.71428571428572 v-112.86752014306126 q0,-7 -7,-7 h-31.714285714285722 q-7,0 -7,7 Z"
    fill="#444cf7" />
  <path
    d=" M1885.7142857142858,1000 h45.71428571428572 v-278.44879091739745 q0,-7 -7,-7 h-31.714285714285722 q-7,0 -7,7 Z"
    fill="#444cf7" />
  <path
    d=" M1942.857142857143,1000 h45.71428571428572 v-265.6673734105593 q0,-7 -7,-7 h-31.714285714285722 q-7,0 -7,7 Z"
    fill="#444cf7" />
</svg>