<svg id="chart" width="100%" height="auto" viewBox="0 0 2000 1000" xmlns="http://www.w3.org/2000/svg">
  <path d=" M0,1000 h45.71428571428572 v-719.3506061457246 q0,-7 -7,-7 h-31.714285714285722 q-7,0 -7,7 Z"
    fill="#444cf7" />
  <path
    d=" M57.142857142857146,1000 h45.71428571428572 v-687.9346332103474 q0,-7 -7,-7 h-31.714285714285722 q-7,0 -7,7 Z"
    fill="#444cf7" />
  <path
    d=" M114.28571428571429,1000 h45.71428571428572 v-443.5314502923361 q0,-7 -7,-7 h-31.714285714285722 q-7,0 -7,7 Z"
    fill="#444cf7" />
  <path
    d=" M171.42857142857144,1000 h45.71428571428572 v-761.8590015307075 q0,-7 -7,-7 h-31.714285714285722 q-7,0 -7,7 Z"
    fill="#444cf7" />
  <path
    d=" M228.57142857142858,1000 h45.71428571428572 v-538.9139549899812 q0,-7 -7,-7 h-31.714285714285722 q-7,0 -7,7 Z"
    fill="#444cf7" />
  <path
    d=" M285.7142857142857,1000 h45.71428571428572 v-239.78601311211412 q0,-7 -7,-7 h-31.714285714285722 q-7,0 -7,7 Z"
    fill="#444cf7" />
  <path
    d=" M342.8571428571429,1000 h45.71428571428572 v-310.7596434890281 q0,-7 -7,-7 h-31.714285714285722 q-7,0 -7,7 Z"
    fill="#444cf7" />
  <path d=" M400,1000 h45.71428571428572 v-757.315565626803 q0,-7 -7,-7 h-31.714285714285722 q-7,0 -7,7 Z"
    fill="#444cf7" />
  <path
    d=" M457.14285714285717,1000 h45.71428571428572 v-462.1352092569972 q0,-7 -7,-7 h-31.714285714285722 q-7,0 -7,7 Z"
    fill="#444cf7" />
  <path
    d=" M514.2857142857143,1000 h45.71428571428572 v-498.96200653185144 q0,-7 -7,-7 h-31.714285714285722 q-7,0 -7,7 Z"
    fill="#444cf7" />
  <path
    d=" M571.4285714285714,1000 h45.71428571428572 v-681.3034613810779 q0,-7 -7,-7 h-31.714285714285722 q-7,0 -7,7 Z"
    fill="#444cf7" />
  <path
    d=" M628.5714285714286,1000 h45.71428571428572 v-668.5483875162523 q0,-7 -7,-7 h-31.714285714285722 q-7,0 -7,7 Z"
    fill="#444cf7" />
  <path
    d=" M685.7142857142858,1000 h45.71428571428572 v-581.7677070356276 q0,-7 -7,-7 h-31.714285714285722 q-7,0 -7,7 Z"
    fill="#444cf7" />
  <path d=" M742.8571428571429,1000 h45.71428571428572 v-355.3132189854 q0,-7 -7,-7 h-31.714285714285722 q-7,0 -7,7 Z"
    fill="#444cf7" />
  <path d=" M800,1000 h45.71428571428572 v-891.499155327251 q0,-7 -7,-7 h-31.714285714285722 q-7,0 -7,7 Z"
    fill="#444cf7" />
  <path
    d=" M857.1428571428572,1000 h45.71428571428572 v-471.6090662959882 q0,-7 -7,-7 h-31.714285714285722 q-7,0 -7,7 Z"
    fill="#444cf7" />
  <path
    d=" M914.2857142857143,1000 h45.71428571428572 v-803.4081023336378 q0,-7 -7,-7 h-31.714285714285722 q-7,0 -7,7 Z"
    fill="#444cf7" />
  <path
    d=" M971.4285714285714,1000 h45.71428571428572 v-278.0168530215874 q0,-7 -7,-7 h-31.714285714285722 q-7,0 -7,7 Z"
    fill="#444cf7" />
  <path
    d=" M1028.5714285714287,1000 h45.71428571428572 v-748.3711093185032 q0,-7 -7,-7 h-31.714285714285722 q-7,0 -7,7 Z"
    fill="#444cf7" />
  <path
    d=" M1085.7142857142858,1000 h45.71428571428572 v-632.8822688397121 q0,-7 -7,-7 h-31.714285714285722 q-7,0 -7,7 Z"
    fill="#444cf7" />
  <path
    d=" M1142.857142857143,1000 h45.71428571428572 v-823.5469377694814 q0,-7 -7,-7 h-31.714285714285722 q-7,0 -7,7 Z"
    fill="#444cf7" />
  <path d=" M1200,1000 h45.71428571428572 v-478.91810799543737 q0,-7 -7,-7 h-31.714285714285722 q-7,0 -7,7 Z"
    fill="#444cf7" />
  <path
    d=" M1257.142857142857,1000 h45.71428571428572 v-430.0734205986007 q0,-7 -7,-7 h-31.714285714285722 q-7,0 -7,7 Z"
    fill="#444cf7" />
  <path
    d=" M1314.2857142857144,1000 h45.71428571428572 v-257.1803188437673 q0,-7 -7,-7 h-31.714285714285722 q-7,0 -7,7 Z"
    fill="#444cf7" />
  <path
    d=" M1371.4285714285716,1000 h45.71428571428572 v-289.0751049688581 q0,-7 -7,-7 h-31.714285714285722 q-7,0 -7,7 Z"
    fill="#444cf7" />
  <path
    d=" M1428.5714285714287,1000 h45.71428571428572 v-649.9498422987872 q0,-7 -7,-7 h-31.714285714285722 q-7,0 -7,7 Z"
    fill="#444cf7" />
  <path
    d=" M1485.7142857142858,1000 h45.71428571428572 v-646.2485357435487 q0,-7 -7,-7 h-31.714285714285722 q-7,0 -7,7 Z"
    fill="#444cf7" />
  <path
    d=" M1542.857142857143,1000 h45.71428571428572 v-718.6709734040081 q0,-7 -7,-7 h-31.714285714285722 q-7,0 -7,7 Z"
    fill="#444cf7" />
  <path d=" M1600,1000 h45.71428571428572 v-350.87906077661364 q0,-7 -7,-7 h-31.714285714285722 q-7,0 -7,7 Z"
    fill="#444cf7" />
  <path
    d=" M1657.1428571428573,1000 h45.71428571428572 v-363.70565780231505 q0,-7 -7,-7 h-31.714285714285722 q-7,0 -7,7 Z"
    fill="#444cf7" />
  <path
    d=" M1714.2857142857144,1000 h45.71428571428572 v-650.8287887035918 q0,-7 -7,-7 h-31.714285714285722 q-7,0 -7,7 Z"
    fill="#444cf7" />
  <path
    d=" M1771.4285714285716,1000 h45.71428571428572 v-409.7012078605243 q0,-7 -7,-7 h-31.714285714285722 q-7,0 -7,7 Z"
    fill="#444cf7" />
  <path
    d=" M1828.5714285714287,1000 h45.71428571428572 v-522.8760050834547 q0,-7 -7,-7 h-31.714285714285722 q-7,0 -7,7 Z"
    fill="#444cf7" />
  <path
    d=" M1885.7142857142858,1000 h45.71428571428572 v-364.93025644351826 q0,-7 -7,-7 h-31.714285714285722 q-7,0 -7,7 Z"
    fill="#444cf7" />
  <path
    d=" M1942.857142857143,1000 h45.71428571428572 v-248.00570836416682 q0,-7 -7,-7 h-31.714285714285722 q-7,0 -7,7 Z"
    fill="#444cf7" />
</svg>