<svg width="24" height="32" viewBox="0 0 24 32" fill="none" xmlns="http://www.w3.org/2000/svg">
<path d="M12.1145 -0.0117188C5.555 -0.0117188 0 5.57478 0 12.1928C0 19.1228 6.4385 26.2098 10.7695 31.1908C10.786 31.2108 11.486 31.9883 12.3485 31.9883H12.425C13.2875 31.9883 13.9825 31.2108 14 31.1908C18.0645 26.5183 24 18.8143 24 12.1928C24 5.57478 19.667 -0.0117188 12.1145 -0.0117188ZM12.5155 29.8493C12.4805 29.8843 12.4295 29.9233 12.3845 29.9558C12.3385 29.9243 12.2885 29.8843 12.2515 29.8493L11.7285 29.2478C7.6225 24.5373 2 18.0868 2 12.1928C2 6.66128 6.632 1.98778 12.1145 1.98778C18.9435 1.98778 22 7.11278 22 12.1928C22 16.6673 18.8085 22.6083 12.5155 29.8493ZM12.035 6.04378C8.72147 6.04378 6.03497 8.73028 6.03497 12.0438C6.03497 15.3573 8.72147 18.0438 12.035 18.0438C15.3485 18.0438 18.035 15.3573 18.035 12.0438C18.035 8.73028 15.3485 6.04378 12.035 6.04378ZM12.035 16.0438C9.82947 16.0438 7.98894 14.2058 7.98894 11.9998C7.98894 9.79428 9.78344 7.99978 11.9889 7.99978C14.1959 7.99978 15.9889 9.79428 15.9889 11.9998C15.9899 14.2058 14.242 16.0438 12.035 16.0438Z" fill="white"/>
</svg>
